<mxfile host="3fcb4212-f6aa-4a02-a6c7-d426f1bbe653" modified="2020-08-12T00:43:10.418Z" agent="5.0 (Macintosh; Intel Mac OS X 10_13_6) AppleWebKit/537.36 (KHTML, like Gecko) Code/1.47.3 Chrome/78.0.3904.130 Electron/7.3.2 Safari/537.36" etag="ymNt7xFOqVtKQxZ4Dd1I" version="13.1.3">
    <diagram id="6hGFLwfOUW9BJ-s0fimq" name="Page-1">
        <mxGraphModel dx="1687" dy="719" grid="1" gridSize="10" guides="1" tooltips="1" connect="1" arrows="1" fold="1" page="1" pageScale="1" pageWidth="827" pageHeight="1169" math="0" shadow="0">
            <root>
                <mxCell id="0"/>
                <mxCell id="1" parent="0"/>
                <mxCell id="3" value="" style="rounded=1;whiteSpace=wrap;html=1;fillColor=#FFFFFF;arcSize=1;" vertex="1" parent="1">
                    <mxGeometry x="80" y="120" width="680" height="280" as="geometry"/>
                </mxCell>
                <mxCell id="14" value="&lt;font style=&quot;font-size: 24px&quot;&gt;Button&lt;/font&gt;" style="rounded=1;whiteSpace=wrap;html=1;shadow=0;strokeColor=#E6E6E6;fillColor=#dc1928;fontSize=16;align=center;arcSize=6;" vertex="1" parent="1">
                    <mxGeometry x="580" y="190" width="140" height="60" as="geometry"/>
                </mxCell>
                <mxCell id="16" style="edgeStyle=orthogonalEdgeStyle;rounded=0;orthogonalLoop=1;jettySize=auto;html=1;entryX=0;entryY=0.5;entryDx=0;entryDy=0;fontSize=16;strokeColor=#807370;exitX=1;exitY=0.5;exitDx=0;exitDy=0;" edge="1" parent="1" source="15" target="28">
                    <mxGeometry relative="1" as="geometry">
                        <mxPoint x="370" y="865" as="targetPoint"/>
                        <Array as="points">
                            <mxPoint x="270" y="660"/>
                        </Array>
                    </mxGeometry>
                </mxCell>
                <mxCell id="38" style="edgeStyle=orthogonalEdgeStyle;rounded=0;orthogonalLoop=1;jettySize=auto;html=1;entryX=0.5;entryY=0;entryDx=0;entryDy=0;strokeColor=#807370;fontSize=16;" edge="1" parent="1" source="15" target="37">
                    <mxGeometry relative="1" as="geometry">
                        <Array as="points">
                            <mxPoint x="135" y="710"/>
                            <mxPoint x="30" y="710"/>
                            <mxPoint x="30" y="870"/>
                            <mxPoint x="105" y="870"/>
                        </Array>
                    </mxGeometry>
                </mxCell>
                <mxCell id="15" value="&lt;font style=&quot;font-size: 24px&quot;&gt;AP Styles Input&lt;/font&gt;" style="text;html=1;strokeColor=none;fillColor=none;align=left;verticalAlign=middle;whiteSpace=wrap;rounded=0;shadow=0;fontSize=16;" vertex="1" parent="1">
                    <mxGeometry x="40" y="650" width="190" height="20" as="geometry"/>
                </mxCell>
                <mxCell id="18" style="edgeStyle=orthogonalEdgeStyle;rounded=0;orthogonalLoop=1;jettySize=auto;html=1;entryX=0;entryY=0.25;entryDx=0;entryDy=0;strokeColor=#807370;fontSize=16;exitX=1;exitY=0.5;exitDx=0;exitDy=0;" edge="1" parent="1" source="17" target="24">
                    <mxGeometry relative="1" as="geometry">
                        <Array as="points">
                            <mxPoint x="350" y="825"/>
                            <mxPoint x="350" y="828"/>
                        </Array>
                    </mxGeometry>
                </mxCell>
                <mxCell id="17" value="&lt;span style=&quot;font-size: 24px&quot;&gt;Suggest List Component&lt;/span&gt;" style="text;html=1;strokeColor=none;fillColor=none;align=left;verticalAlign=middle;whiteSpace=wrap;rounded=0;shadow=0;fontSize=16;" vertex="1" parent="1">
                    <mxGeometry x="40" y="815" width="280" height="20" as="geometry"/>
                </mxCell>
                <mxCell id="19" value="" style="group" vertex="1" connectable="0" parent="1">
                    <mxGeometry x="140" y="250" width="410" height="130" as="geometry"/>
                </mxCell>
                <mxCell id="6" value="" style="rounded=1;whiteSpace=wrap;html=1;strokeColor=#FFFFFF;fillColor=#FFFFFF;fontSize=16;align=left;arcSize=1;shadow=1;" vertex="1" parent="19">
                    <mxGeometry width="410" height="130" as="geometry"/>
                </mxCell>
                <mxCell id="7" value="&lt;font color=&quot;#807370&quot;&gt;&amp;nbsp;1 / 111 Bourke St. Melbourne 3000&lt;/font&gt;" style="rounded=0;whiteSpace=wrap;html=1;shadow=0;strokeColor=#E6E6E6;fillColor=#FFFFFF;fontSize=16;align=left;" vertex="1" parent="19">
                    <mxGeometry width="410" height="30" as="geometry"/>
                </mxCell>
                <mxCell id="11" value="&lt;font color=&quot;#807370&quot;&gt;&amp;nbsp;2 / 111 Bourke St. Melbourne 3000&lt;/font&gt;" style="rounded=0;whiteSpace=wrap;html=1;shadow=0;strokeColor=#E6E6E6;fillColor=#FFFFFF;fontSize=16;align=left;" vertex="1" parent="19">
                    <mxGeometry y="30" width="410" height="30" as="geometry"/>
                </mxCell>
                <mxCell id="12" value="&lt;font color=&quot;#807370&quot;&gt;&amp;nbsp;3 / 111 Bourke St. Melbourne 3000&lt;/font&gt;" style="rounded=0;whiteSpace=wrap;html=1;shadow=0;strokeColor=#E6E6E6;fillColor=#FFFFFF;fontSize=16;align=left;" vertex="1" parent="19">
                    <mxGeometry y="60" width="410" height="30" as="geometry"/>
                </mxCell>
                <mxCell id="13" value="&lt;font color=&quot;#807370&quot;&gt;&amp;nbsp;4 / 111 Bourke St. Melbourne 3000&lt;/font&gt;" style="rounded=0;whiteSpace=wrap;html=1;shadow=0;strokeColor=#E6E6E6;fillColor=#FFFFFF;fontSize=16;align=left;" vertex="1" parent="19">
                    <mxGeometry y="90" width="410" height="30" as="geometry"/>
                </mxCell>
                <mxCell id="20" value="" style="group" vertex="1" connectable="0" parent="1">
                    <mxGeometry x="380" y="760" width="410" height="130" as="geometry"/>
                </mxCell>
                <mxCell id="21" value="" style="rounded=1;whiteSpace=wrap;html=1;strokeColor=#FFFFFF;fillColor=#FFFFFF;fontSize=16;align=left;arcSize=1;shadow=1;" vertex="1" parent="20">
                    <mxGeometry width="410" height="130" as="geometry"/>
                </mxCell>
                <mxCell id="22" value="&lt;font color=&quot;#807370&quot;&gt;&amp;nbsp;1 / 111 Bourke St. Melbourne 3000&lt;/font&gt;" style="rounded=0;whiteSpace=wrap;html=1;shadow=0;strokeColor=#E6E6E6;fillColor=#FFFFFF;fontSize=16;align=left;" vertex="1" parent="20">
                    <mxGeometry width="410" height="30" as="geometry"/>
                </mxCell>
                <mxCell id="23" value="&lt;font color=&quot;#807370&quot;&gt;&amp;nbsp;2 / 111 Bourke St. Melbourne 3000&lt;/font&gt;" style="rounded=0;whiteSpace=wrap;html=1;shadow=0;strokeColor=#E6E6E6;fillColor=#FFFFFF;fontSize=16;align=left;" vertex="1" parent="20">
                    <mxGeometry y="30" width="410" height="30" as="geometry"/>
                </mxCell>
                <mxCell id="24" value="&lt;font color=&quot;#807370&quot;&gt;&amp;nbsp;3 / 111 Bourke St. Melbourne 3000&lt;/font&gt;" style="rounded=0;whiteSpace=wrap;html=1;shadow=0;strokeColor=#E6E6E6;fillColor=#FFFFFF;fontSize=16;align=left;" vertex="1" parent="20">
                    <mxGeometry y="60" width="410" height="30" as="geometry"/>
                </mxCell>
                <mxCell id="25" value="&lt;font color=&quot;#807370&quot;&gt;&amp;nbsp;4 / 111 Bourke St. Melbourne 3000&lt;/font&gt;" style="rounded=0;whiteSpace=wrap;html=1;shadow=0;strokeColor=#E6E6E6;fillColor=#FFFFFF;fontSize=16;align=left;" vertex="1" parent="20">
                    <mxGeometry y="90" width="410" height="30" as="geometry"/>
                </mxCell>
                <mxCell id="26" value="" style="group" vertex="1" connectable="0" parent="1">
                    <mxGeometry x="130" y="160" width="430" height="90" as="geometry"/>
                </mxCell>
                <mxCell id="4" value="" style="rounded=1;whiteSpace=wrap;html=1;fillColor=#FFFFFF;strokeColor=#919194;arcSize=6;" vertex="1" parent="26">
                    <mxGeometry y="30" width="430" height="60" as="geometry"/>
                </mxCell>
                <mxCell id="5" value="&lt;font color=&quot;#212129&quot; style=&quot;font-size: 16px;&quot;&gt;Input Label&lt;/font&gt;" style="text;html=1;strokeColor=none;fillColor=none;align=left;verticalAlign=middle;whiteSpace=wrap;rounded=0;fontSize=16;" vertex="1" parent="26">
                    <mxGeometry width="100" height="20" as="geometry"/>
                </mxCell>
                <mxCell id="27" value="" style="group" vertex="1" connectable="0" parent="1">
                    <mxGeometry x="370" y="600" width="430" height="90" as="geometry"/>
                </mxCell>
                <mxCell id="28" value="" style="rounded=1;whiteSpace=wrap;html=1;fillColor=#FFFFFF;strokeColor=#919194;arcSize=6;" vertex="1" parent="27">
                    <mxGeometry y="30" width="430" height="60" as="geometry"/>
                </mxCell>
                <mxCell id="29" value="&lt;font color=&quot;#212129&quot; style=&quot;font-size: 16px;&quot;&gt;Input Label&lt;/font&gt;" style="text;html=1;strokeColor=none;fillColor=none;align=left;verticalAlign=middle;whiteSpace=wrap;rounded=0;fontSize=16;" vertex="1" parent="27">
                    <mxGeometry width="100" height="20" as="geometry"/>
                </mxCell>
                <mxCell id="31" style="edgeStyle=orthogonalEdgeStyle;rounded=0;orthogonalLoop=1;jettySize=auto;html=1;entryX=0.5;entryY=1;entryDx=0;entryDy=0;strokeColor=#807370;fontSize=16;" edge="1" parent="1" source="30" target="21">
                    <mxGeometry relative="1" as="geometry"/>
                </mxCell>
                <mxCell id="30" value="" style="shape=dataStorage;whiteSpace=wrap;html=1;rounded=1;shadow=0;strokeColor=#E6E6E6;fillColor=none;fontSize=16;align=left;" vertex="1" parent="1">
                    <mxGeometry x="680" y="980" width="100" height="80" as="geometry"/>
                </mxCell>
                <mxCell id="35" style="edgeStyle=orthogonalEdgeStyle;rounded=0;orthogonalLoop=1;jettySize=auto;html=1;entryX=0;entryY=0.5;entryDx=0;entryDy=0;strokeColor=#807370;fontSize=16;" edge="1" parent="1" source="32" target="30">
                    <mxGeometry relative="1" as="geometry"/>
                </mxCell>
                <mxCell id="32" value="Containing Component Populates Data" style="text;html=1;strokeColor=none;fillColor=none;align=center;verticalAlign=middle;whiteSpace=wrap;rounded=0;shadow=0;fontSize=16;" vertex="1" parent="1">
                    <mxGeometry x="414" y="995" width="200" height="50" as="geometry"/>
                </mxCell>
                <mxCell id="34" style="edgeStyle=orthogonalEdgeStyle;rounded=0;orthogonalLoop=1;jettySize=auto;html=1;strokeColor=#807370;fontSize=16;" edge="1" parent="1" source="33" target="32">
                    <mxGeometry relative="1" as="geometry"/>
                </mxCell>
                <mxCell id="33" value="Containing&#10;Component" style="shape=module;align=left;spacingLeft=20;align=center;verticalAlign=top;rounded=1;shadow=0;strokeColor=#E6E6E6;fillColor=none;fontSize=16;" vertex="1" parent="1">
                    <mxGeometry x="200" y="990" width="150" height="60" as="geometry"/>
                </mxCell>
                <mxCell id="39" style="edgeStyle=orthogonalEdgeStyle;rounded=0;orthogonalLoop=1;jettySize=auto;html=1;entryX=0;entryY=0;entryDx=0;entryDy=35;entryPerimeter=0;strokeColor=#807370;fontSize=16;exitX=0.5;exitY=1;exitDx=0;exitDy=0;" edge="1" parent="1" source="37" target="33">
                    <mxGeometry relative="1" as="geometry"/>
                </mxCell>
                <mxCell id="37" value="Input event" style="text;html=1;strokeColor=none;fillColor=none;align=center;verticalAlign=middle;whiteSpace=wrap;rounded=0;shadow=0;fontSize=16;" vertex="1" parent="1">
                    <mxGeometry x="40" y="910" width="130" height="50" as="geometry"/>
                </mxCell>
                <mxCell id="40" value="Auto Suggest Structure" style="text;html=1;strokeColor=none;fillColor=none;align=left;verticalAlign=middle;whiteSpace=wrap;rounded=0;shadow=0;fontSize=32;fontStyle=4" vertex="1" parent="1">
                    <mxGeometry x="40" y="40" width="400" height="40" as="geometry"/>
                </mxCell>
                <mxCell id="41" value="Components" style="text;html=1;strokeColor=none;fillColor=none;align=left;verticalAlign=middle;whiteSpace=wrap;rounded=0;shadow=0;fontSize=32;fontStyle=4" vertex="1" parent="1">
                    <mxGeometry x="40" y="520" width="400" height="40" as="geometry"/>
                </mxCell>
            </root>
        </mxGraphModel>
    </diagram>
</mxfile>
